# xmcd CD database file
#
# Track frame offsets:
#	150
#	23270
#	53285
#	71990
#	97587
#	116355
#	139932
#	162755
#	183315
#	205607
#
# Disc length: 3022 seconds
#
# Revision: 0
# Processed by: cddbd v1.4PL0 Copyright (c) Steve Scherf et al.
# Submitted via: CDex 1.50Beta7
#
DISCID=700bcc0a
DTITLE=eric essix - just like you
DYEAR=1900
DGENRE=Jazz
TTITLE0=down the pike
TTITLE1=in from the storm
TTITLE2=third degree burn
TTITLE3=together again
TTITLE4=rachelle
TTITLE5=just like you
TTITLE6=missing you
TTITLE7=you've gone to far
TTITLE8=second thoughts
TTITLE9=you heard me
EXTD=
EXTT0=
EXTT1=
EXTT2=
EXTT3=
EXTT4=
EXTT5=
EXTT6=
EXTT7=
EXTT8=
EXTT9=
PLAYORDER=
